<?xml version="1.0" standalone="no"?><!DOCTYPE svg PUBLIC "-//W3C//DTD SVG 1.1//EN" "http://www.w3.org/Graphics/SVG/1.1/DTD/svg11.dtd"><svg t="1488889881727" class="icon" style="" viewBox="0 0 1024 1024" version="1.1" xmlns="http://www.w3.org/2000/svg" p-id="1428" xmlns:xlink="http://www.w3.org/1999/xlink" width="24" height="24"><defs><style type="text/css"></style></defs><path d="M798.646486 800.373827c-4.732791-1.926886-12.763698-7.227612-17.027815-9.645684-5.671163-2.882654-11.342326-5.779633-16.544815-9.153474-10.886955-6.257517-21.760606-12.050454-32.634258-18.307971-4.263094-2.418073-5.671163-0.970094-10.403954 0.477884-3.311419 0.970094-7.092535 1.447978-10.403954 2.40477-6.622838 1.940189-13.716396 3.374864-20.339234 4.344958-16.075117 3.374864-30.743188 4.822842-47.288003 4.330632-48.239677-1.926886-95.997378-17.830087-133.364427-46.261627-4.732791-3.374864-9.93528-7.705496-13.716396-11.558244-5.202489-4.822842-8.982582-8.197706-13.246699-13.020548l-11.342326-13.976316c-25.058722-31.806403-38.774095-75.649957-34.524305-119.027907 5.202489-55.415101 35.945677-97.823979 77.079516-128.673591 64.329121-48.187489 163.638941-57.81987 240.718457-19.263739 12.295024 5.779633 22.698978 12.037151 32.634258 18.785855 46.819328 33.732266 94.107331 98.315166 77.562517 173.965124-8.513908 37.107129-25.541723 59.282175-45.880957 83.382059-5.202489 6.257517-19.856233 20.233833-25.541723 25.056676-4.249791 3.374864-10.403954 9.153474-14.654768 11.558244L798.646486 800.373827zM252.42508 599.903026c-3.311419-3.374864-7.092535-5.300726-10.873652-8.197706-10.873652-8.67559-19.856233-16.381086-29.321816-26.02677-41.147142-41.929971-67.158562-95.41921-60.051701-161.91467 8.982582-83.382059 68.565609-141.680836 127.210263-170.125679 76.141144-37.107129 162.686243-37.586037 242.608503-4.809539 17.496489 7.227612 33.57263 16.859993 47.7577 26.505677 7.562233 5.300726 14.185071 10.602476 20.808932 16.381086l18.917862 17.830087c8.04421 9.153474 9.452279 10.602476 17.027815 20.726044 13.233396 17.830087 33.102932 54.937217 34.524305 76.141144-21.760606-1.447978-37.367049-1.925862-59.113329 1.447978-99.323123 14.933107-180.65243 95.897094-181.13543 200.948685 0 29.401634 7.575536 50.605561 7.575536 55.429427-30.274514 3.360538-58.644655-0.970094-88.436168-6.749728-5.202489-1.447978-21.760606-6.27082-26.010397-4.344958-20.808932 10.123568-43.506886 22.652929-64.798818 33.254382-6.609535 3.374864-14.654768 8.197706-21.277606 10.602476 0.469698-3.852748 4.732791-14.933107 6.154163-19.278065C237.301637 648.091538 251.955382 603.755774 252.42508 599.903026L252.42508 599.903026zM64.679092 481.83191l0 41.916668c1.421372 3.374864 1.421372 19.769252 2.359744 25.071002 10.403954 106.021685 56.284911 201.440895 128.161938 274.68506 32.634258 33.254382 74.719772 66.017576 124.381845 89.639576 24.12035 11.558244 49.66105 21.203928 77.562517 28.910447 22.215978 5.779633 43.976584 9.632381 67.14526 12.050454 5.684466 0.477884 21.760606 0.956791 25.072025 2.40477l38.305421 0c2.359744-0.956791 19.856233-1.447978 24.589025-1.926886 52.490491-5.300726 98.840122-18.800181 146.597823-40.481993 131.943055-61.685921 228.423433-192.764282 251.122411-341.194846 1.421372-7.705496 2.359744-15.410991 2.842745-23.608697 0.469698-5.779633 0.938372-21.682835 2.359744-25.548886l0-41.916668c-1.421372-3.852748-1.890047-19.755949-2.359744-25.548886-0.951675-8.18338-1.421372-15.903202-2.842745-23.608697-6.622838-44.812625-19.387559-83.84664-37.353746-123.850749-22.698978-50.114374-55.815213-93.971232-87.966471-126.747729C753.248529 108.830661 659.141198 62.077847 555.09961 51.475372c-5.684466-0.956791-21.290909-0.956791-24.602328-2.40477l-41.133839 0c-3.781116 1.447978-19.387559 1.926886-25.072025 2.40477-8.030907 0.970094-15.606443 1.447978-23.168676 2.895957-15.606443 2.40477-29.321816 5.779633-43.976584 9.153474-27.901467 7.227612-53.442166 17.830087-77.562517 28.92375C203.246007 146.894581 110.560048 260.142855 78.865185 388.338562c-3.781116 14.455223-6.622838 29.401634-8.982582 44.812625-1.421372 7.719822-2.359744 15.425318-2.842745 23.623024C66.100464 462.07596 66.100464 478.457046 64.679092 481.83191L64.679092 481.83191z" p-id="1429" fill="#82a0b8"></path><path d="M495.985258 315.080072c-17.97949 1.940189-34.524305 14.468526-33.585933 33.746592 0.469698 17.830087 17.97949 29.866215 35.945677 30.836309C544.694633 381.589858 543.273261 310.271556 495.985258 315.080072L495.985258 315.080072z" p-id="1430" fill="#82a0b8"></path><path d="M317.692572 315.572282c-17.966187 2.40477-34.994002 14.455223-33.102932 34.689057 1.421372 16.873296 18.917862 29.401634 37.835723 29.401634C367.340319 380.14188 364.511901 308.822554 317.692572 315.572282L317.692572 315.572282z" p-id="1431" fill="#82a0b8"></path><path d="M579.218938 503.035838c-22.229281 4.330632-30.274514 34.211173-8.513908 47.709605 18.917862 12.050454 50.600445-5.792936 43.024909-28.431539C609.948823 510.741333 595.295078 500.139881 579.218938 503.035838L579.218938 503.035838z" p-id="1432" fill="#82a0b8"></path><path d="M719.662597 503.035838c-12.295024 2.40477-26.010397 16.381086-21.277606 31.806403 3.781116 13.006222 16.075117 22.652929 33.585933 18.785855 12.295024-2.882654 26.480094-14.455223 21.747303-30.836309C750.405785 511.220241 735.26904 500.139881 719.662597 503.035838L719.662597 503.035838z" p-id="1433" fill="#82a0b8"></path></svg>