<?xml version="1.0" standalone="no"?><!DOCTYPE svg PUBLIC "-//W3C//DTD SVG 1.1//EN" "http://www.w3.org/Graphics/SVG/1.1/DTD/svg11.dtd"><svg t="1488891818804" class="icon" style="" viewBox="0 0 1024 1024" version="1.1" xmlns="http://www.w3.org/2000/svg" p-id="3373" xmlns:xlink="http://www.w3.org/1999/xlink" width="24" height="24"><defs><style type="text/css"></style></defs><path d="M373.166 592.948c-23.062 2.412-39.628 22.538-39.628 41.78 0 19.29 18.574 32.61 41.682 29.91 23.012-2.602 41.682-20.41 41.682-39.628C416.902 605.696 399.666 590.418 373.166 592.948z" p-id="3374" fill="#c9b27c"></path><path d="M431.75 577.024c-7.926 5.73-9.548 16.736-5.252 23.54 4.154 6.972 13.776 7.784 21.582 1.958 7.64-5.992 10.6-16.52 6.47-23.538C450.42 572.178 440.918 570.198 431.75 577.024z" p-id="3375" fill="#c9b27c"></path><path d="M512.06 54.398c-253.734 0-459.84 205.832-459.84 459.746 0 253.792 206.106 459.458 459.84 459.458 253.912 0 459.72-205.666 459.72-459.458C971.78 260.23 765.972 54.398 512.06 54.398zM763.346 629.402c-50.658 107.618-217.77 160.02-341.574 150.302-117.682-9.262-269-48.342-284.648-190.744 0 0-8.26-64.504 54.274-147.964 0 0 89.93-125.642 194.708-161.452 104.85-35.69 117.048 24.732 117.048 60.398-5.562 30.248-15.996 48.056 23.372 35.834 0 0 103.036-47.792 145.434-5.418 34.21 34.258 5.658 81.312 5.658 81.312s-14.204 15.756 15.016 21.414C721.902 478.93 814.028 521.592 763.346 629.402zM661.742 332.016c-11.22 0-20.244-9.072-20.244-20.196 0-11.316 9.024-20.388 20.244-20.388 0 0 126.288-23.372 111.224 112.394 0 0.812-0.12 1.456-0.264 2.148-1.456 9.622-9.882 16.974-19.886 16.974-11.244 0-20.386-9-20.386-20.22C732.454 402.728 752.46 312.01 661.742 332.016zM875.12 426.696c-3.318 48.892-14.754 31.776-28.314 31.776-16.232 0-29.364-8.188-29.364-24.446 0-14.108 5.824-25.926 5.824-25.926 1.718-5.944 15.47-41.54-9.07-96.614-44.906-75.462-135.36-75.94-146.08-71.642-10.766 4.202-26.712 6.684-26.712 6.684-16.328 0-29.458-13.058-29.458-29.22 0-13.56 9.072-24.804 21.486-28.314 0 0 0.286-0.048 0.714-0.144 0.908-0.19 1.814-0.334 2.792-0.43 12.582-2.458 57.462-19.624 101.15-9.406 78.16 18.24 185.446 100.984 137.174 247.658l-0.142 0L875.12 426.696z" p-id="3376" fill="#c9b27c"></path><path d="M430.938 448.04c-122.91 5.61-222.256 71.476-222.256 153.598 0 82.004 99.348 143.668 222.256 137.938 122.994-5.61 222.544-82.6 222.544-164.602C653.482 493.016 553.932 442.358 430.938 448.04zM514.66 654.54c-37.646 48.606-112.106 72.312-184.442 33.16-34.388-18.692-33.148-55.336-33.148-55.336s-14.276-115.832 109.35-130.276C530.204 487.716 552.31 605.958 514.66 654.54z" p-id="3377" fill="#c9b27c"></path></svg>